<mxfile host="app.diagrams.net" agent="Mozilla/5.0 (Windows NT 10.0; Win64; x64) AppleWebKit/537.36 (KHTML, like Gecko) Chrome/135.0.0.0 Safari/537.36" version="26.3.0">
  <diagram name="Page-1" id="wKE_0eOpaiYpltMJoPl3">
    <mxGraphModel dx="1981" dy="1713" grid="1" gridSize="10" guides="1" tooltips="1" connect="1" arrows="1" fold="1" page="1" pageScale="1" pageWidth="850" pageHeight="1100" math="0" shadow="0">
      <root>
        <mxCell id="0" />
        <mxCell id="1" parent="0" />
        <mxCell id="Q8wWB-HcS4peFA1Eoi-V-1" value="PS" style="whiteSpace=wrap;html=1;aspect=fixed;fillColor=#fff2cc;strokeColor=#d6b656;" parent="1" vertex="1">
          <mxGeometry x="320" y="440" width="120" height="120" as="geometry" />
        </mxCell>
        <mxCell id="Q8wWB-HcS4peFA1Eoi-V-2" value="DDR" style="rounded=0;whiteSpace=wrap;html=1;fillColor=#fff2cc;strokeColor=#d6b656;" parent="1" vertex="1">
          <mxGeometry x="345" y="320" width="70" height="40" as="geometry" />
        </mxCell>
        <mxCell id="Q8wWB-HcS4peFA1Eoi-V-4" value="" style="endArrow=classic;startArrow=classic;html=1;rounded=0;exitX=0.479;exitY=-0.017;exitDx=0;exitDy=0;exitPerimeter=0;" parent="1" source="Q8wWB-HcS4peFA1Eoi-V-1" edge="1">
          <mxGeometry width="50" height="50" relative="1" as="geometry">
            <mxPoint x="375" y="420" as="sourcePoint" />
            <mxPoint x="377" y="360" as="targetPoint" />
          </mxGeometry>
        </mxCell>
        <mxCell id="Q8wWB-HcS4peFA1Eoi-V-7" value="" style="endArrow=classic;startArrow=classic;html=1;rounded=0;" parent="1" edge="1">
          <mxGeometry width="50" height="50" relative="1" as="geometry">
            <mxPoint x="440" y="480" as="sourcePoint" />
            <mxPoint x="760" y="480" as="targetPoint" />
          </mxGeometry>
        </mxCell>
        <mxCell id="Q8wWB-HcS4peFA1Eoi-V-9" value="AXI bus" style="text;html=1;align=center;verticalAlign=middle;whiteSpace=wrap;rounded=0;" parent="1" vertex="1">
          <mxGeometry x="700" y="430" width="60" height="30" as="geometry" />
        </mxCell>
        <mxCell id="Q8wWB-HcS4peFA1Eoi-V-10" value="DMA" style="rounded=0;whiteSpace=wrap;html=1;fillColor=#fff2cc;strokeColor=#d6b656;" parent="1" vertex="1">
          <mxGeometry x="520" y="560" width="80" height="80" as="geometry" />
        </mxCell>
        <mxCell id="Q8wWB-HcS4peFA1Eoi-V-11" value="" style="endArrow=classic;startArrow=classic;html=1;rounded=0;exitX=0.5;exitY=0;exitDx=0;exitDy=0;" parent="1" source="Q8wWB-HcS4peFA1Eoi-V-10" edge="1">
          <mxGeometry width="50" height="50" relative="1" as="geometry">
            <mxPoint x="515" y="530" as="sourcePoint" />
            <mxPoint x="560" y="480" as="targetPoint" />
          </mxGeometry>
        </mxCell>
        <mxCell id="Q8wWB-HcS4peFA1Eoi-V-12" value="IP" style="rounded=0;whiteSpace=wrap;html=1;fillColor=#dae8fc;strokeColor=#6c8ebf;" parent="1" vertex="1">
          <mxGeometry x="680" y="560" width="80" height="80" as="geometry" />
        </mxCell>
        <mxCell id="Q8wWB-HcS4peFA1Eoi-V-15" value="" style="endArrow=classic;html=1;rounded=0;exitX=0.5;exitY=0;exitDx=0;exitDy=0;entryX=1.004;entryY=0.656;entryDx=0;entryDy=0;entryPerimeter=0;" parent="1" source="Q8wWB-HcS4peFA1Eoi-V-12" target="Q8wWB-HcS4peFA1Eoi-V-1" edge="1">
          <mxGeometry width="50" height="50" relative="1" as="geometry">
            <mxPoint x="695" y="560" as="sourcePoint" />
            <mxPoint x="745" y="510" as="targetPoint" />
            <Array as="points">
              <mxPoint x="720" y="519" />
            </Array>
          </mxGeometry>
        </mxCell>
        <mxCell id="Q8wWB-HcS4peFA1Eoi-V-16" value="Interrupt" style="text;html=1;align=center;verticalAlign=middle;whiteSpace=wrap;rounded=0;" parent="1" vertex="1">
          <mxGeometry x="460" y="490" width="60" height="30" as="geometry" />
        </mxCell>
        <mxCell id="Q8wWB-HcS4peFA1Eoi-V-17" value="IDLE" style="ellipse;whiteSpace=wrap;html=1;" parent="1" vertex="1">
          <mxGeometry x="-40" y="-130" width="60" height="60" as="geometry" />
        </mxCell>
        <mxCell id="Q8wWB-HcS4peFA1Eoi-V-19" value="PROCESS" style="ellipse;whiteSpace=wrap;html=1;" parent="1" vertex="1">
          <mxGeometry x="130" y="-130" width="70" height="60" as="geometry" />
        </mxCell>
        <mxCell id="Q8wWB-HcS4peFA1Eoi-V-20" value="" style="endArrow=classic;html=1;rounded=0;exitX=1;exitY=0.5;exitDx=0;exitDy=0;entryX=-0.045;entryY=0.475;entryDx=0;entryDy=0;entryPerimeter=0;" parent="1" source="Q8wWB-HcS4peFA1Eoi-V-17" target="Q8wWB-HcS4peFA1Eoi-V-19" edge="1">
          <mxGeometry width="50" height="50" relative="1" as="geometry">
            <mxPoint x="220" y="-30" as="sourcePoint" />
            <mxPoint x="270" y="-80" as="targetPoint" />
          </mxGeometry>
        </mxCell>
        <mxCell id="Q8wWB-HcS4peFA1Eoi-V-21" value="start&amp;nbsp;" style="text;html=1;align=center;verticalAlign=middle;whiteSpace=wrap;rounded=0;" parent="1" vertex="1">
          <mxGeometry x="30" y="-130" width="60" height="30" as="geometry" />
        </mxCell>
        <mxCell id="Q8wWB-HcS4peFA1Eoi-V-22" value="" style="endArrow=classic;html=1;rounded=0;exitX=0.5;exitY=1;exitDx=0;exitDy=0;entryX=0.5;entryY=0;entryDx=0;entryDy=0;" parent="1" source="Q8wWB-HcS4peFA1Eoi-V-19" target="Q8wWB-HcS4peFA1Eoi-V-24" edge="1">
          <mxGeometry width="50" height="50" relative="1" as="geometry">
            <mxPoint x="220" y="-30" as="sourcePoint" />
            <mxPoint x="150" as="targetPoint" />
          </mxGeometry>
        </mxCell>
        <mxCell id="Q8wWB-HcS4peFA1Eoi-V-23" value="finish" style="text;html=1;align=center;verticalAlign=middle;whiteSpace=wrap;rounded=0;" parent="1" vertex="1">
          <mxGeometry x="170" y="-60" width="60" height="30" as="geometry" />
        </mxCell>
        <mxCell id="Q8wWB-HcS4peFA1Eoi-V-24" value="READ" style="ellipse;whiteSpace=wrap;html=1;" parent="1" vertex="1">
          <mxGeometry x="135" width="60" height="60" as="geometry" />
        </mxCell>
        <mxCell id="Q8wWB-HcS4peFA1Eoi-V-25" value="" style="endArrow=classic;html=1;rounded=0;exitX=0;exitY=0.5;exitDx=0;exitDy=0;" parent="1" source="Q8wWB-HcS4peFA1Eoi-V-24" edge="1">
          <mxGeometry width="50" height="50" relative="1" as="geometry">
            <mxPoint x="-20" y="55" as="sourcePoint" />
            <mxPoint x="10" y="30" as="targetPoint" />
          </mxGeometry>
        </mxCell>
        <mxCell id="Q8wWB-HcS4peFA1Eoi-V-26" value="FINISH" style="ellipse;whiteSpace=wrap;html=1;" parent="1" vertex="1">
          <mxGeometry x="-50" width="60" height="60" as="geometry" />
        </mxCell>
        <mxCell id="Q8wWB-HcS4peFA1Eoi-V-27" value="" style="endArrow=classic;html=1;rounded=0;entryX=0.428;entryY=1.045;entryDx=0;entryDy=0;entryPerimeter=0;exitX=0.635;exitY=0.014;exitDx=0;exitDy=0;exitPerimeter=0;" parent="1" source="Q8wWB-HcS4peFA1Eoi-V-26" edge="1">
          <mxGeometry width="50" height="50" relative="1" as="geometry">
            <mxPoint x="-20.6400000000001" y="-2.2799999999999274" as="sourcePoint" />
            <mxPoint x="-14.319999999999936" y="-69.99999999999996" as="targetPoint" />
          </mxGeometry>
        </mxCell>
        <mxCell id="Q8wWB-HcS4peFA1Eoi-V-28" value="read_finish" style="text;html=1;align=center;verticalAlign=middle;whiteSpace=wrap;rounded=0;" parent="1" vertex="1">
          <mxGeometry x="50" width="60" height="30" as="geometry" />
        </mxCell>
        <mxCell id="thd5ShAFt4ry7R5aGFPg-2" value="" style="endArrow=classic;html=1;rounded=0;" parent="1" edge="1">
          <mxGeometry width="50" height="50" relative="1" as="geometry">
            <mxPoint x="600" y="480" as="sourcePoint" />
            <mxPoint x="600" y="420" as="targetPoint" />
          </mxGeometry>
        </mxCell>
        <mxCell id="thd5ShAFt4ry7R5aGFPg-3" value="AXI-GPIO" style="rounded=0;whiteSpace=wrap;html=1;fillColor=#fff2cc;strokeColor=#d6b656;" parent="1" vertex="1">
          <mxGeometry x="560" y="340" width="80" height="80" as="geometry" />
        </mxCell>
        <mxCell id="thd5ShAFt4ry7R5aGFPg-4" value="" style="endArrow=classic;html=1;rounded=0;exitX=1;exitY=0.5;exitDx=0;exitDy=0;entryX=0.133;entryY=-0.003;entryDx=0;entryDy=0;entryPerimeter=0;" parent="1" source="thd5ShAFt4ry7R5aGFPg-3" target="Q8wWB-HcS4peFA1Eoi-V-12" edge="1">
          <mxGeometry width="50" height="50" relative="1" as="geometry">
            <mxPoint x="670" y="520" as="sourcePoint" />
            <mxPoint x="720" y="470" as="targetPoint" />
            <Array as="points">
              <mxPoint x="690" y="380" />
            </Array>
          </mxGeometry>
        </mxCell>
        <mxCell id="thd5ShAFt4ry7R5aGFPg-6" value="Start" style="text;html=1;align=center;verticalAlign=middle;whiteSpace=wrap;rounded=0;" parent="1" vertex="1">
          <mxGeometry x="660" y="340" width="60" height="30" as="geometry" />
        </mxCell>
        <mxCell id="thd5ShAFt4ry7R5aGFPg-7" value="" style="endArrow=classic;startArrow=classic;html=1;rounded=0;exitX=1;exitY=0.5;exitDx=0;exitDy=0;entryX=0;entryY=0.5;entryDx=0;entryDy=0;" parent="1" source="Q8wWB-HcS4peFA1Eoi-V-10" target="Q8wWB-HcS4peFA1Eoi-V-12" edge="1">
          <mxGeometry width="50" height="50" relative="1" as="geometry">
            <mxPoint x="610" y="610" as="sourcePoint" />
            <mxPoint x="660" y="560" as="targetPoint" />
          </mxGeometry>
        </mxCell>
        <mxCell id="ODTn2nkbEjYHzwyipzWp-3" value="" style="endArrow=classic;startArrow=classic;html=1;rounded=0;entryX=0;entryY=0.5;entryDx=0;entryDy=0;" parent="1" target="Q8wWB-HcS4peFA1Eoi-V-1" edge="1">
          <mxGeometry width="50" height="50" relative="1" as="geometry">
            <mxPoint x="260" y="500" as="sourcePoint" />
            <mxPoint x="310" y="460" as="targetPoint" />
          </mxGeometry>
        </mxCell>
        <mxCell id="ODTn2nkbEjYHzwyipzWp-4" value="UART" style="text;html=1;align=center;verticalAlign=middle;whiteSpace=wrap;rounded=0;" parent="1" vertex="1">
          <mxGeometry x="250" y="470" width="60" height="30" as="geometry" />
        </mxCell>
        <mxCell id="5XUd_xjD0suQy0t0_gB3-1" value="Start" style="rounded=1;whiteSpace=wrap;html=1;" vertex="1" parent="1">
          <mxGeometry x="-230" y="241.25" width="40" height="30" as="geometry" />
        </mxCell>
        <mxCell id="5XUd_xjD0suQy0t0_gB3-2" value="" style="endArrow=classic;html=1;rounded=0;entryX=1.013;entryY=0.564;entryDx=0;entryDy=0;entryPerimeter=0;" edge="1" parent="1">
          <mxGeometry width="50" height="50" relative="1" as="geometry">
            <mxPoint x="-230" y="256.1" as="sourcePoint" />
            <mxPoint x="-298.57000000000005" y="256.39" as="targetPoint" />
          </mxGeometry>
        </mxCell>
        <mxCell id="5XUd_xjD0suQy0t0_gB3-4" value="Init DMA, UART, GPIO" style="rounded=0;whiteSpace=wrap;html=1;" vertex="1" parent="1">
          <mxGeometry x="-410" y="232.5" width="110" height="47.5" as="geometry" />
        </mxCell>
        <mxCell id="5XUd_xjD0suQy0t0_gB3-5" value="" style="endArrow=classic;html=1;rounded=0;exitX=0.5;exitY=1;exitDx=0;exitDy=0;" edge="1" parent="1" source="5XUd_xjD0suQy0t0_gB3-4" target="5XUd_xjD0suQy0t0_gB3-6">
          <mxGeometry width="50" height="50" relative="1" as="geometry">
            <mxPoint x="-320" y="300" as="sourcePoint" />
            <mxPoint x="-355" y="330" as="targetPoint" />
          </mxGeometry>
        </mxCell>
        <mxCell id="5XUd_xjD0suQy0t0_gB3-6" value="`define INTR_EN" style="rhombus;whiteSpace=wrap;html=1;" vertex="1" parent="1">
          <mxGeometry x="-395" y="300" width="80" height="80" as="geometry" />
        </mxCell>
        <mxCell id="5XUd_xjD0suQy0t0_gB3-7" value="" style="endArrow=classic;html=1;rounded=0;exitX=0.5;exitY=1;exitDx=0;exitDy=0;" edge="1" parent="1" source="5XUd_xjD0suQy0t0_gB3-6">
          <mxGeometry width="50" height="50" relative="1" as="geometry">
            <mxPoint x="-320" y="370" as="sourcePoint" />
            <mxPoint x="-355" y="400" as="targetPoint" />
          </mxGeometry>
        </mxCell>
        <mxCell id="5XUd_xjD0suQy0t0_gB3-10" value="Set up XScuGic" style="rounded=0;whiteSpace=wrap;html=1;" vertex="1" parent="1">
          <mxGeometry x="-410" y="400" width="110" height="47.5" as="geometry" />
        </mxCell>
        <mxCell id="5XUd_xjD0suQy0t0_gB3-11" value="" style="endArrow=classic;html=1;rounded=0;exitX=1;exitY=0.5;exitDx=0;exitDy=0;" edge="1" parent="1" source="5XUd_xjD0suQy0t0_gB3-6">
          <mxGeometry width="50" height="50" relative="1" as="geometry">
            <mxPoint x="-330" y="370" as="sourcePoint" />
            <mxPoint x="-270" y="340" as="targetPoint" />
          </mxGeometry>
        </mxCell>
        <mxCell id="5XUd_xjD0suQy0t0_gB3-12" value="`define IMG_UA" style="rhombus;whiteSpace=wrap;html=1;" vertex="1" parent="1">
          <mxGeometry x="-270" y="300" width="80" height="80" as="geometry" />
        </mxCell>
        <mxCell id="5XUd_xjD0suQy0t0_gB3-14" value="" style="endArrow=classic;html=1;rounded=0;exitX=1;exitY=0.5;exitDx=0;exitDy=0;" edge="1" parent="1" source="5XUd_xjD0suQy0t0_gB3-10">
          <mxGeometry width="50" height="50" relative="1" as="geometry">
            <mxPoint x="-330" y="420" as="sourcePoint" />
            <mxPoint x="-290" y="340" as="targetPoint" />
            <Array as="points">
              <mxPoint x="-290" y="424" />
            </Array>
          </mxGeometry>
        </mxCell>
        <mxCell id="5XUd_xjD0suQy0t0_gB3-15" value="y" style="text;html=1;align=center;verticalAlign=middle;whiteSpace=wrap;rounded=0;" vertex="1" parent="1">
          <mxGeometry x="-370" y="370" width="60" height="30" as="geometry" />
        </mxCell>
        <mxCell id="5XUd_xjD0suQy0t0_gB3-16" value="n" style="text;html=1;align=center;verticalAlign=middle;whiteSpace=wrap;rounded=0;" vertex="1" parent="1">
          <mxGeometry x="-340" y="310" width="60" height="30" as="geometry" />
        </mxCell>
        <mxCell id="5XUd_xjD0suQy0t0_gB3-17" value="" style="endArrow=classic;html=1;rounded=0;exitX=1;exitY=0.5;exitDx=0;exitDy=0;" edge="1" parent="1" source="5XUd_xjD0suQy0t0_gB3-12">
          <mxGeometry width="50" height="50" relative="1" as="geometry">
            <mxPoint x="-210" y="370" as="sourcePoint" />
            <mxPoint x="-150" y="340" as="targetPoint" />
          </mxGeometry>
        </mxCell>
        <mxCell id="5XUd_xjD0suQy0t0_gB3-19" value="y" style="text;html=1;align=center;verticalAlign=middle;whiteSpace=wrap;rounded=0;" vertex="1" parent="1">
          <mxGeometry x="-200" y="310" width="60" height="30" as="geometry" />
        </mxCell>
        <mxCell id="5XUd_xjD0suQy0t0_gB3-20" value="Wait until receiving is done" style="rounded=0;whiteSpace=wrap;html=1;" vertex="1" parent="1">
          <mxGeometry x="-150" y="316.25" width="110" height="47.5" as="geometry" />
        </mxCell>
        <mxCell id="5XUd_xjD0suQy0t0_gB3-22" value="n" style="text;html=1;align=center;verticalAlign=middle;whiteSpace=wrap;rounded=0;" vertex="1" parent="1">
          <mxGeometry x="-225" y="365" width="60" height="30" as="geometry" />
        </mxCell>
        <mxCell id="5XUd_xjD0suQy0t0_gB3-27" value="DMA" style="rounded=0;whiteSpace=wrap;html=1;" vertex="1" parent="1">
          <mxGeometry x="-285" y="470" width="120" height="60" as="geometry" />
        </mxCell>
        <mxCell id="5XUd_xjD0suQy0t0_gB3-28" value="Wait until receiving is done" style="rounded=0;whiteSpace=wrap;html=1;" vertex="1" parent="1">
          <mxGeometry x="-280" y="400" width="110" height="47.5" as="geometry" />
        </mxCell>
        <mxCell id="5XUd_xjD0suQy0t0_gB3-30" value="" style="endArrow=classic;html=1;rounded=0;exitX=0.5;exitY=1;exitDx=0;exitDy=0;entryX=0.456;entryY=0.014;entryDx=0;entryDy=0;entryPerimeter=0;" edge="1" parent="1" source="5XUd_xjD0suQy0t0_gB3-12" target="5XUd_xjD0suQy0t0_gB3-28">
          <mxGeometry width="50" height="50" relative="1" as="geometry">
            <mxPoint x="-180" y="350" as="sourcePoint" />
            <mxPoint x="-130" y="300" as="targetPoint" />
          </mxGeometry>
        </mxCell>
        <mxCell id="5XUd_xjD0suQy0t0_gB3-32" value="" style="endArrow=classic;html=1;rounded=0;exitX=0.5;exitY=1;exitDx=0;exitDy=0;entryX=0.5;entryY=0;entryDx=0;entryDy=0;" edge="1" parent="1" source="5XUd_xjD0suQy0t0_gB3-28" target="5XUd_xjD0suQy0t0_gB3-27">
          <mxGeometry width="50" height="50" relative="1" as="geometry">
            <mxPoint x="-180" y="420" as="sourcePoint" />
            <mxPoint x="-130" y="370" as="targetPoint" />
          </mxGeometry>
        </mxCell>
        <mxCell id="5XUd_xjD0suQy0t0_gB3-33" value="" style="endArrow=classic;html=1;rounded=0;exitX=0.5;exitY=1;exitDx=0;exitDy=0;entryX=1;entryY=0.5;entryDx=0;entryDy=0;" edge="1" parent="1" source="5XUd_xjD0suQy0t0_gB3-20" target="5XUd_xjD0suQy0t0_gB3-27">
          <mxGeometry width="50" height="50" relative="1" as="geometry">
            <mxPoint x="-180" y="420" as="sourcePoint" />
            <mxPoint x="-130" y="370" as="targetPoint" />
            <Array as="points">
              <mxPoint x="-95" y="500" />
            </Array>
          </mxGeometry>
        </mxCell>
        <mxCell id="5XUd_xjD0suQy0t0_gB3-37" value="`define INTR_EN" style="rhombus;whiteSpace=wrap;html=1;" vertex="1" parent="1">
          <mxGeometry x="-395" y="460" width="80" height="80" as="geometry" />
        </mxCell>
        <mxCell id="5XUd_xjD0suQy0t0_gB3-38" value="" style="endArrow=classic;html=1;rounded=0;exitX=0;exitY=0.5;exitDx=0;exitDy=0;entryX=1;entryY=0.5;entryDx=0;entryDy=0;" edge="1" parent="1" source="5XUd_xjD0suQy0t0_gB3-27" target="5XUd_xjD0suQy0t0_gB3-37">
          <mxGeometry width="50" height="50" relative="1" as="geometry">
            <mxPoint x="-180" y="500" as="sourcePoint" />
            <mxPoint x="-130" y="450" as="targetPoint" />
          </mxGeometry>
        </mxCell>
        <mxCell id="5XUd_xjD0suQy0t0_gB3-39" value="" style="endArrow=classic;html=1;rounded=0;exitX=0.5;exitY=1;exitDx=0;exitDy=0;" edge="1" parent="1" source="5XUd_xjD0suQy0t0_gB3-37">
          <mxGeometry width="50" height="50" relative="1" as="geometry">
            <mxPoint x="-250" y="530" as="sourcePoint" />
            <mxPoint x="-355" y="570" as="targetPoint" />
          </mxGeometry>
        </mxCell>
        <mxCell id="5XUd_xjD0suQy0t0_gB3-40" value="y" style="text;html=1;align=center;verticalAlign=middle;whiteSpace=wrap;rounded=0;" vertex="1" parent="1">
          <mxGeometry x="-360" y="540" width="60" height="30" as="geometry" />
        </mxCell>
        <mxCell id="5XUd_xjD0suQy0t0_gB3-42" value="Wait until intr triggered" style="rounded=0;whiteSpace=wrap;html=1;" vertex="1" parent="1">
          <mxGeometry x="-410" y="570" width="120" height="60" as="geometry" />
        </mxCell>
        <mxCell id="5XUd_xjD0suQy0t0_gB3-43" value="" style="endArrow=classic;html=1;rounded=0;exitX=0;exitY=0.5;exitDx=0;exitDy=0;entryX=0.5;entryY=0;entryDx=0;entryDy=0;" edge="1" parent="1" source="5XUd_xjD0suQy0t0_gB3-37" target="5XUd_xjD0suQy0t0_gB3-46">
          <mxGeometry width="50" height="50" relative="1" as="geometry">
            <mxPoint x="-250" y="600" as="sourcePoint" />
            <mxPoint x="-240" y="570" as="targetPoint" />
            <Array as="points">
              <mxPoint x="-410" y="500" />
              <mxPoint x="-410" y="550" />
              <mxPoint x="-220" y="550" />
            </Array>
          </mxGeometry>
        </mxCell>
        <mxCell id="5XUd_xjD0suQy0t0_gB3-45" value="n" style="text;html=1;align=center;verticalAlign=middle;whiteSpace=wrap;rounded=0;" vertex="1" parent="1">
          <mxGeometry x="-435" y="470" width="60" height="30" as="geometry" />
        </mxCell>
        <mxCell id="5XUd_xjD0suQy0t0_gB3-46" value="Check DMA register" style="rounded=0;whiteSpace=wrap;html=1;" vertex="1" parent="1">
          <mxGeometry x="-280" y="570" width="120" height="60" as="geometry" />
        </mxCell>
        <mxCell id="5XUd_xjD0suQy0t0_gB3-50" value="" style="endArrow=classic;html=1;rounded=0;exitX=0.5;exitY=1;exitDx=0;exitDy=0;entryX=0.567;entryY=0.965;entryDx=0;entryDy=0;entryPerimeter=0;" edge="1" parent="1" source="5XUd_xjD0suQy0t0_gB3-42">
          <mxGeometry width="50" height="50" relative="1" as="geometry">
            <mxPoint x="-200" y="540" as="sourcePoint" />
            <mxPoint x="-70.30999999999995" y="613.9499999999998" as="targetPoint" />
            <Array as="points">
              <mxPoint x="-350" y="660" />
              <mxPoint x="-70" y="660" />
            </Array>
          </mxGeometry>
        </mxCell>
        <mxCell id="5XUd_xjD0suQy0t0_gB3-52" value="" style="endArrow=classic;html=1;rounded=0;exitX=0.539;exitY=1.008;exitDx=0;exitDy=0;exitPerimeter=0;entryX=0.121;entryY=-0.006;entryDx=0;entryDy=0;entryPerimeter=0;" edge="1" parent="1">
          <mxGeometry width="50" height="50" relative="1" as="geometry">
            <mxPoint x="-230.00000000000006" y="530" as="sourcePoint" />
            <mxPoint x="-101.5300000000002" y="584.8199999999999" as="targetPoint" />
            <Array as="points">
              <mxPoint x="-229.68" y="539.52" />
              <mxPoint x="-102" y="540" />
            </Array>
          </mxGeometry>
        </mxCell>
        <mxCell id="5XUd_xjD0suQy0t0_gB3-53" value="pl_to_ps" style="text;html=1;align=center;verticalAlign=middle;whiteSpace=wrap;rounded=0;" vertex="1" parent="1">
          <mxGeometry x="-190" y="535" width="60" height="30" as="geometry" />
        </mxCell>
        <mxCell id="5XUd_xjD0suQy0t0_gB3-55" value="ps_to_pl" style="text;html=1;align=center;verticalAlign=middle;whiteSpace=wrap;rounded=0;" vertex="1" parent="1">
          <mxGeometry x="-230" y="440" width="60" height="30" as="geometry" />
        </mxCell>
        <mxCell id="5XUd_xjD0suQy0t0_gB3-58" value="" style="endArrow=classic;html=1;rounded=0;exitX=1;exitY=0.5;exitDx=0;exitDy=0;entryX=0;entryY=0.5;entryDx=0;entryDy=0;" edge="1" parent="1" source="5XUd_xjD0suQy0t0_gB3-46">
          <mxGeometry width="50" height="50" relative="1" as="geometry">
            <mxPoint x="-120" y="590" as="sourcePoint" />
            <mxPoint x="-110" y="599.9999999999998" as="targetPoint" />
          </mxGeometry>
        </mxCell>
        <mxCell id="5XUd_xjD0suQy0t0_gB3-59" value="" style="endArrow=classic;html=1;rounded=0;" edge="1" parent="1">
          <mxGeometry width="50" height="50" relative="1" as="geometry">
            <mxPoint x="-70" y="585" as="sourcePoint" />
            <mxPoint x="-70" y="560" as="targetPoint" />
          </mxGeometry>
        </mxCell>
        <mxCell id="5XUd_xjD0suQy0t0_gB3-60" value="Send Histogram" style="rounded=0;whiteSpace=wrap;html=1;" vertex="1" parent="1">
          <mxGeometry x="-110" y="585" width="70" height="30" as="geometry" />
        </mxCell>
        <mxCell id="5XUd_xjD0suQy0t0_gB3-61" value="end" style="rounded=1;whiteSpace=wrap;html=1;" vertex="1" parent="1">
          <mxGeometry x="-90" y="530" width="40" height="30" as="geometry" />
        </mxCell>
      </root>
    </mxGraphModel>
  </diagram>
</mxfile>
